<svg width="30" height="30" viewBox="0 0 30 30" fill="none" xmlns="http://www.w3.org/2000/svg">
<path d="M30 3.5942C28.8725 4.19507 27.6801 4.59228 26.46 4.77347C27.7473 3.8288 28.7119 2.34267 29.175 0.590742C27.9653 1.47531 26.6411 2.09855 25.26 2.43336C24.3368 1.20354 23.1075 0.384916 21.7647 0.105861C20.422 -0.173193 19.0418 0.10311 17.8407 0.891437C16.6396 1.67976 15.6854 2.93552 15.1279 4.46177C14.5703 5.98802 14.4409 7.69842 14.76 9.32473C12.3141 9.17276 9.92166 8.39044 7.73798 7.02858C5.5543 5.66672 3.62827 3.75579 2.085 1.41992C1.54371 2.58107 1.25928 3.89606 1.26 5.23413C1.25808 6.47675 1.50633 7.70068 1.98263 8.79694C2.45894 9.8932 3.14853 10.8278 3.99 11.5174C3.01197 11.4847 2.05483 11.1624 1.2 10.5777V10.6698C1.20733 12.4109 1.70399 14.0954 2.60597 15.4385C3.50795 16.7815 4.75988 17.7006 6.15 18.0403C5.61488 18.2403 5.05931 18.3458 4.5 18.3535C4.11284 18.348 3.72663 18.3048 3.345 18.2246C3.74086 19.7222 4.50693 21.0311 5.53661 21.969C6.56629 22.907 7.80836 23.4273 9.09 23.4576C6.9258 25.5494 4.25383 26.6911 1.5 26.7006C0.998603 26.7026 0.497603 26.6657 0 26.59C2.81164 28.8201 6.08822 30.0039 9.435 29.9988C11.7445 30.0283 14.0357 29.4922 16.1747 28.4217C18.3136 27.3513 20.2575 25.768 21.8928 23.7644C23.5281 21.7607 24.8219 19.3769 25.6988 16.7521C26.5757 14.1274 27.0181 11.3142 27 8.47713C27 8.16388 27 7.83221 27 7.50054C28.177 6.42226 29.1922 5.1004 30 3.5942Z" fill="white"/>
</svg>
